<svg xmlns="http://www.w3.org/2000/svg" version="1" width="682.667" height="682.667" viewBox="0 0 512.000000 512.000000"><path d="M78.1 54.1c-8.9 1.7-18.2 9.5-22.5 18.8l-2.1 4.6v357l2.6 5.5c3.3 7 8.9 12.6 15.9 15.9l5.5 2.6h357l5.6-2.6c7.1-3.3 12.5-8.7 15.8-15.8l2.6-5.6v-357l-2.2-4.7c-3-6.6-9.6-13.3-16.2-16.5l-5.6-2.8-176-.1c-96.8-.1-178 .2-180.4.7zm266.9 47c.8.4 3.5 1.2 6 1.9 6.1 1.6 17.5 6.7 23 10.4 24.3 16.2 38.1 41.7 38.1 70.9 0 16.8-3.7 29.7-12.9 45.2-3.2 5.3-34.4 38.5-36.2 38.5-.4 0-1-4.5-1.3-10-.6-9.6-1-11.6-4.4-24.3l-1.6-5.7 7-7.3c5-5.1 8.1-9.5 10.9-15.2 3.5-7.4 3.9-8.8 4.2-18.3.6-14.9-2-23.6-10.2-33.7-11.2-13.7-23.1-19.5-40.1-19.5-10 0-17.1 1.9-25.4 6.6-6.2 3.6-71.2 68.2-76.2 75.7-5.6 8.5-8.1 17.2-8.2 27.6 0 13.6 4 23.3 15.8 37.9 3 3.7 3.5 5.1 3.5 9.4 0 8.9-5.5 15.7-14.2 17.3-8 1.5-15.8-3.9-24.4-16.6-5.5-8.4-11.3-20.7-12.1-25.9-.2-1.4-.6-3.2-.9-4-2.2-5.6-2.3-34.3-.2-35.6.4-.3.8-2.1.8-4s.4-3.4.9-3.4 1.2-1.5 1.5-3.4c.4-1.9 1.7-5.4 3-7.8 1.3-2.3 3.2-5.9 4.2-7.8 1.1-1.9 2.5-3.9 3.2-4.3.6-.4 1.2-1.2 1.2-1.7 0-1.5 1.8-3.3 38.6-40 39.5-39.4 37.5-37.4 39.7-38.3.9-.3 1.7-1.1 1.7-1.7 0-.5.5-1 1-1 .6 0 2.8-1.1 4.9-2.5 2.2-1.3 5.1-2.7 6.5-3.1 1.4-.3 2.6-1 2.6-1.5s1.1-.9 2.3-.9c1.3 0 2.7-.3 3.1-.8.4-.4 1.1-.7 1.4-.8 5.3-.8 9.4-1.8 9.8-2.6.7-1.1 31.1-.8 33.4.3zm-48.5 103c4.7 1.3 10 6.1 16 14.4 8.9 12.5 13.6 24.8 15.6 41.2 1.1 8.5 1 11.2-.5 20.1-2.7 15.9-6.7 25.9-15.1 37.7-5.3 7.3-74.2 76-80.6 80.3-14.3 9.6-30.1 14.3-47.6 14.3-15.9 0-28.2-3.3-42.4-11.4-18.3-10.4-32.7-28.6-38.4-48.2-.9-3.3-2-6.7-2.4-7.5-1.1-2.3-1.4-32-.3-33.3.8-1 2.2-6.5 2.6-9.9.1-.3.4-1 .9-1.4.4-.4.7-1.8.7-3.1 0-1.2.5-2.3 1-2.3.6 0 1-.6 1-1.3 0-.6.6-2.3 1.4-3.7.7-1.4 2.3-4.4 3.5-6.8 1.3-2.3 2.7-4.2 3.2-4.2s.9-.5.9-1c0-1.2-.1-1.1 18.3-19.8 8.2-8.2 15-14.5 15.2-13.9.2.7.6 5 .9 9.7.5 8 1.9 15.7 4.7 25.7l1.1 4.3-6.5 6.9c-11.6 12.3-15.7 21.9-15.7 36.6 0 14.6 4.5 25.7 14.7 35.8 10.8 10.9 22 15.1 38.2 14.5 9.8-.3 11.2-.6 18.6-4.2 7.7-3.7 9.5-5.3 43.3-39 36.2-35.9 40.1-40.6 43.5-51.2 5.2-16.4 1.2-35.8-10-48.4-5.3-6-7.3-10.1-7.3-15 0-8.7 7.1-16 16.5-16.9.6 0 2.8.4 5 1z"/></svg>